HIERARCHY
ROOT Pelvis
{
	OFFSET 0.000000 0.000000 0.000000
	CHANNELS 6 Xposition Yposition Zposition Zrotation Yrotation Xrotation 
	JOINT LeftUpLeg_virtual
	{
		OFFSET 0.000000 0.000000 0.000000
		CHANNELS 3 Zrotation Yrotation Xrotation
		JOINT LeftUpLeg
		{
			OFFSET 18.735201 -5.666702 -4.541200
			CHANNELS 3 Zrotation Yrotation Xrotation
			JOINT LeftLeg
			{
				OFFSET -0.021200 -31.938179 0.493100
				CHANNELS 3 Zrotation Yrotation Xrotation
				JOINT LeftFoot
				{
					OFFSET 0.021200 -31.938179 -4.336299
					CHANNELS 3 Zrotation Yrotation Xrotation
					JOINT LeftToeBase
					{
						OFFSET 0.943001 -26.722000 15.023500
						CHANNELS 3 Zrotation Yrotation Xrotation
						End Site
						{
							OFFSET 0.000000 0.000000 0.000000
						}
					}
				}
			}
		}
	}
	JOINT RightUpLeg_virtual
	{
		OFFSET 0.000000 0.000000 0.000000
		CHANNELS 3 Zrotation Yrotation Xrotation
		JOINT RightUpLeg
		{
			OFFSET -18.735201 -5.666702 -4.541200
			CHANNELS 3 Zrotation Yrotation Xrotation
			JOINT RightLeg
			{
				OFFSET 0.018946 -31.938133 0.493100
				CHANNELS 3 Zrotation Yrotation Xrotation
				JOINT RightFoot
				{
					OFFSET -0.018946 -31.938126 -4.336299
					CHANNELS 3 Zrotation Yrotation Xrotation
					JOINT RightToeBase
					{
						OFFSET -0.943001 -26.722004 15.023500
						CHANNELS 3 Zrotation Yrotation Xrotation
						End Site
						{
							OFFSET 0.000000 0.000000 0.000000
						}
					}
				}
			}
		}
	}
	JOINT Hips_virtual
	{
		OFFSET 0.000000 0.000000 0.000000
		CHANNELS 3 Zrotation Yrotation Xrotation
		JOINT Hips
		{
			OFFSET -0.000000 -0.000000 -0.000000
			CHANNELS 3 Zrotation Yrotation Xrotation
			JOINT Spine
			{
				OFFSET 0.000000 10.199997 -0.299500
				CHANNELS 3 Zrotation Yrotation Xrotation
				JOINT Spine1
				{
					OFFSET 0.000000 11.900002 -1.516600
					CHANNELS 3 Zrotation Yrotation Xrotation
					JOINT Spine2
					{
						OFFSET 0.000000 13.600006 -2.842500
						CHANNELS 3 Zrotation Yrotation Xrotation
						JOINT Neck_virtual
						{
							OFFSET 0.000000 0.000000 0.000000
							CHANNELS 3 Zrotation Yrotation Xrotation
							JOINT Neck
							{
								OFFSET 0.000000 9.624100 -2.890100
								CHANNELS 3 Zrotation Yrotation Xrotation
								JOINT Head
								{
									OFFSET 0.000000 14.068802 -1.351900
									CHANNELS 3 Zrotation Yrotation Xrotation
									End Site
									{
										OFFSET 0.000000 0.000000 0.000000
									}
								}
							}
						}
						JOINT LeftShoulder_virtual
						{
							OFFSET 0.000000 0.000000 0.000000
							CHANNELS 3 Zrotation Yrotation Xrotation
							JOINT LeftShoulder
							{
								OFFSET 15.263000 10.923401 -0.547700
								CHANNELS 3 Zrotation Yrotation Xrotation
								JOINT LeftArm
								{
									OFFSET 25.438599 -2.830597 -13.032500
									CHANNELS 3 Zrotation Yrotation Xrotation
									JOINT LeftForeArm
									{
										OFFSET 29.960503 0.000000 0.000000
										CHANNELS 3 Zrotation Yrotation Xrotation
										JOINT LeftHand
										{
											OFFSET 27.849251 0.000000 0.000000
											CHANNELS 3 Zrotation Yrotation Xrotation
											End Site
											{
												OFFSET 0.000000 0.000000 0.000000
											}
										}
									}
								}
							}
						}
						JOINT RightShoulder_virtual
						{
							OFFSET 0.000000 0.000000 0.000000
							CHANNELS 3 Zrotation Yrotation Xrotation
							JOINT RightShoulder
							{
								OFFSET -15.263000 10.923401 -0.547700
								CHANNELS 3 Zrotation Yrotation Xrotation
								JOINT RightArm
								{
									OFFSET -25.438599 -2.830597 -13.032500
									CHANNELS 3 Zrotation Yrotation Xrotation
									JOINT RightForeArm
									{
										OFFSET -29.960503 0.000000 0.000000
										CHANNELS 3 Zrotation Yrotation Xrotation
										JOINT RightHand
										{
											OFFSET -27.849251 0.000000 0.000000
											CHANNELS 3 Zrotation Yrotation Xrotation
											End Site
											{
												OFFSET 0.000000 0.000000 0.000000
											}
										}
									}
								}
							}
						}
					}
				}
			}
		}
	}
}
MOTION
Frames: 13
Frame Time: 0.033333
6.845117 86.850525 -7.243925 0.080957 0.284870 -0.008710 1.775307 11.380467 11.363896 8.910282 14.546782 -4.022666 0.014548 -4.297906 35.502384 -7.301219 -2.672607 -7.714753 0.000000 0.000000 0.000000 1.020173 8.720719 9.785197 -2.343497 -8.417588 -47.169628 2.134145 -3.907703 51.383327 -2.240374 0.350340 -13.729603 0.000000 0.000000 0.000000 1.144703 6.798603 10.420056 -0.176750 -2.656481 0.495212 0.483102 -2.577832 3.343586 2.428079 -3.312912 1.902264 0.050330 -0.031974 0.007227 2.672742 -3.246200 1.872252 0.911513 0.329223 -1.032264 0.000000 0.000000 0.000000 3.493826 -3.803752 0.996186 4.792476 6.581415 -0.720188 -39.359318 -56.878208 -9.313572 -170.437210 -57.291679 177.008377 0.000000 0.000000 0.000000 1.601472 -3.307551 1.674990 6.086784 -15.166810 -3.843531 63.602554 75.634232 4.128472 -0.003603 65.140053 0.216624 0.000000 0.000000 0.000000 
6.598922 88.633186 -9.360063 -0.075849 0.484882 -0.055135 0.568491 10.818808 11.350446 9.943623 16.428831 -15.173841 -2.299784 -5.087293 49.025208 -3.445023 -2.559478 0.849321 0.000000 0.000000 0.000000 0.638328 8.882876 10.052929 -1.618380 -8.905210 -46.094410 2.175241 -4.068778 51.773983 -1.716809 1.140008 -13.492581 0.000000 0.000000 0.000000 1.128240 7.641612 11.638803 0.108039 -2.650577 0.584761 1.081176 -1.720755 6.339374 1.761507 -3.009197 2.157387 0.003030 -0.046422 -0.005613 1.938348 -2.879210 2.129795 0.663303 0.463295 -0.977051 0.000000 0.000000 0.000000 3.437418 -3.243493 0.583336 13.635003 3.088629 -1.671853 -16.728897 -55.061188 -45.326900 -168.864670 -62.013176 174.512222 0.000000 0.000000 0.000000 1.267485 -2.893174 2.663498 -0.800417 -13.897039 -2.835983 34.729561 79.324867 -33.777817 0.012583 65.101875 0.233970 0.000000 0.000000 0.000000 
6.404545 89.790787 -11.223436 -0.158048 0.193205 0.362034 0.480757 9.508272 12.055961 9.294397 18.061718 -29.419809 -3.107557 -3.774543 67.593201 1.666640 -2.353502 6.624083 0.000000 0.000000 0.000000 0.886677 8.890842 10.789322 -0.925316 -8.709734 -45.879658 0.222228 -3.990689 55.378071 -2.304841 2.212788 -15.077585 0.000000 0.000000 0.000000 1.345196 8.221085 12.632002 0.248599 -2.457323 0.241271 0.602492 -0.973318 9.444592 1.180906 -2.706661 2.351453 0.005643 -0.003937 0.005877 1.147520 -2.632167 2.642972 0.381262 0.630363 -0.815492 0.000000 0.000000 0.000000 3.313063 -2.760405 0.490238 21.557852 -0.133759 -3.060854 -5.542715 -44.956215 -66.522423 -165.457687 -68.815636 170.001114 0.000000 0.000000 0.000000 0.697189 -2.565376 3.655230 -7.364794 -12.670796 -2.296545 7.369145 75.603996 -68.583633 0.034287 65.156776 0.265686 0.000000 0.000000 0.000000 
6.207879 90.360519 -12.525834 0.002855 -0.049775 0.340363 1.278935 7.733970 13.534976 7.876218 19.035706 -43.457932 -1.793360 -1.951566 84.069733 8.085020 -1.530422 10.175024 0.000000 0.000000 0.000000 1.455012 7.831187 12.176791 -1.148636 -7.472483 -45.350861 -1.936952 -4.393339 57.184170 -3.264031 3.053419 -16.044638 0.000000 0.000000 0.000000 1.485679 7.833678 13.573368 0.127846 -2.349063 0.259083 -0.967203 -0.353456 12.021338 0.925090 -2.467103 2.530180 -0.053479 -0.005213 -0.004801 0.840201 -2.220855 3.142887 0.179405 0.901384 -0.836116 0.000000 0.000000 0.000000 3.258941 -2.397870 0.762996 26.375490 -2.333561 -4.387520 -2.481732 -35.023258 -73.290916 -163.074081 -74.695435 166.632202 0.000000 0.000000 0.000000 0.171412 -2.399149 4.051266 -12.313421 -11.331514 -2.268962 4.895909 70.188972 -75.478203 -0.013129 65.145149 0.216255 0.000000 0.000000 0.000000 
5.984285 90.801628 -13.191556 0.032417 0.151562 0.234668 2.165009 5.192776 14.996251 6.226726 19.153336 -53.647564 -1.003235 -1.318317 91.809258 12.751933 -1.665662 10.242240 0.000000 0.000000 0.000000 1.972765 6.301918 13.159914 -1.305125 -6.557897 -43.914669 -2.747013 -5.082638 55.092793 -4.354300 4.124459 -16.419641 0.000000 0.000000 0.000000 1.429250 6.559820 14.365753 -0.073638 -2.014874 0.592760 -3.251285 -0.159948 13.120127 1.212810 -2.185112 2.541931 0.008383 -0.015500 -0.015964 0.849152 -2.036318 3.326738 -0.099725 0.967287 -1.209350 0.000000 0.000000 0.000000 3.136952 -2.123207 1.378549 26.058086 -2.821098 -4.611955 -2.592189 -30.345051 -71.053734 -164.739044 -77.516533 167.579300 0.000000 0.000000 0.000000 -0.334905 -2.364235 4.053353 -14.300920 -9.852087 -2.333467 13.297072 66.267380 -68.656624 -0.067686 65.144829 0.145496 0.000000 0.000000 0.000000 
5.508866 91.469360 -13.123994 -0.000135 -0.121742 0.006024 2.019851 3.185017 16.349619 5.039724 18.849680 -58.479645 -2.006663 -1.094826 88.397156 13.478236 -3.394174 7.027059 0.000000 0.000000 0.000000 1.248443 4.488116 14.067270 -0.756008 -4.950484 -41.388615 -1.657267 -5.846783 49.451122 -5.739465 4.287592 -15.390580 0.000000 0.000000 0.000000 0.797912 5.512827 15.194515 -0.160686 -1.545771 1.042865 -5.510053 -0.088025 12.212270 1.783081 -1.890698 2.514586 -0.039880 -0.015848 -0.008422 1.495401 -1.604666 3.274612 -0.281231 0.918484 -1.662509 0.000000 0.000000 0.000000 3.107246 -1.822704 2.083389 20.461983 -1.523744 -3.879972 -5.873780 -31.267126 -62.017090 -172.802353 -76.542793 175.123611 0.000000 0.000000 0.000000 -0.443493 -2.200511 3.688986 -12.597623 -8.042912 -2.531382 27.666174 63.067619 -53.651752 0.025314 65.136719 0.255494 0.000000 0.000000 0.000000 
5.107631 91.930069 -12.475563 -0.071799 -0.088375 -0.205883 0.564751 1.336427 17.271753 3.274889 19.207071 -59.905994 -5.165258 -1.450451 75.620186 11.786580 -5.700654 2.304714 0.000000 0.000000 0.000000 -0.377013 2.211531 15.044700 0.363260 -3.255646 -37.814003 0.327677 -7.092594 42.461693 -6.364147 3.991928 -13.143745 0.000000 0.000000 0.000000 -0.394444 4.073987 15.591819 -0.132649 -1.156408 1.397000 -6.970201 -0.203807 9.682009 2.381502 -1.458138 2.531994 -0.011839 0.012793 -0.013269 2.182575 -1.242781 3.227495 -0.289591 0.793449 -2.255108 0.000000 0.000000 0.000000 2.919415 -1.469669 2.635946 11.076631 1.274426 -2.967005 -13.867085 -34.208740 -47.931202 -179.161041 -74.098656 -179.308502 0.000000 0.000000 0.000000 -0.398862 -2.037787 3.410070 -7.294257 -6.390333 -2.627453 41.568058 58.409103 -37.405338 0.017053 65.130081 0.240642 0.000000 0.000000 0.000000 
5.049025 91.497528 -11.387694 -0.438752 0.060446 -0.262074 -1.715388 -0.266724 18.330772 1.229924 20.062403 -59.673344 -8.947989 -3.267635 61.853180 8.960588 -7.796252 -3.321738 0.000000 0.000000 0.000000 -2.046871 1.079055 16.293833 2.500955 -4.547484 -33.301086 1.715395 -8.482143 37.969223 -6.016439 3.362367 -11.803428 0.000000 0.000000 0.000000 -1.620222 2.306684 15.648352 -0.142569 -0.596853 1.444652 -7.262610 -0.388430 6.440893 2.653487 -1.118077 2.731850 -0.027482 0.004404 -0.021914 2.615598 -0.884588 3.345566 -0.116520 0.586018 -2.675942 0.000000 0.000000 0.000000 2.624885 -1.016376 2.839742 0.045046 5.229652 -2.351608 -27.053911 -34.449074 -30.802139 179.381577 -72.727730 -178.714279 0.000000 0.000000 0.000000 -0.227129 -1.884917 3.505702 0.826216 -5.544679 -2.584545 50.167397 51.563957 -26.868042 -0.170390 65.109886 0.058057 0.000000 0.000000 0.000000 
5.244171 89.897690 -10.032208 -0.351332 -0.042898 -0.236670 -3.123385 -1.149208 19.719915 -0.104838 19.272182 -59.465931 -11.339535 -4.467504 54.538757 6.843296 -7.988661 -8.432727 0.000000 0.000000 0.000000 -3.530137 -0.445682 17.452696 4.233628 -5.964198 -29.356483 0.833546 -9.643479 38.670048 -3.842356 0.997910 -13.123043 0.000000 0.000000 0.000000 -2.823303 1.146718 15.496786 -0.418127 -0.385596 1.124050 -6.549134 -0.440456 3.320246 2.256749 -0.883891 3.013457 -0.066017 -0.003582 0.009831 2.572990 -0.488761 3.480355 0.278581 0.523796 -2.935068 0.000000 0.000000 0.000000 2.294701 -0.595333 2.634923 -10.033143 8.946391 -2.458701 -39.914669 -28.884172 -15.945281 -178.321838 -72.850449 178.493973 0.000000 0.000000 0.000000 0.081536 -1.836657 4.237271 9.467209 -5.706660 -2.967720 54.138088 43.602875 -22.358770 -0.048672 65.089851 0.185356 0.000000 0.000000 0.000000 
5.703461 87.549690 -8.781207 -0.285105 -0.062123 -0.061471 -3.557783 -1.881726 20.535391 -1.136812 17.953266 -60.533463 -11.221405 -4.454150 56.112503 5.859802 -6.014155 -14.442069 0.000000 0.000000 0.000000 -3.927918 -2.148558 18.270353 4.283770 -6.565079 -25.706762 -0.358819 -9.231768 42.047043 -4.171424 1.315101 -18.507757 0.000000 0.000000 0.000000 -3.584010 -0.305698 14.930404 -0.714310 -0.363030 0.565983 -5.248357 -0.355706 1.329215 1.351687 -0.589860 3.096409 -0.011853 0.039450 0.003191 1.900541 -0.254028 3.582128 0.734318 0.400239 -2.851120 0.000000 0.000000 0.000000 1.661890 -0.166427 2.284990 -17.328127 11.527040 -2.894681 -48.340973 -19.707144 -6.634280 -173.200684 -74.025574 173.441101 0.000000 0.000000 0.000000 0.179182 -1.719447 5.224778 15.019790 -6.835770 -3.185303 55.289242 36.614460 -20.083736 -0.267914 65.099701 -0.036740 0.000000 0.000000 0.000000 
6.237051 85.543991 -8.048427 -0.078820 -0.084131 0.076522 -4.181753 -2.559260 19.676514 -1.298778 16.100246 -60.799812 -8.916311 -4.234926 60.993702 5.009552 -3.611558 -19.712584 0.000000 0.000000 0.000000 -4.483665 -3.783914 19.058588 3.947366 -5.802257 -22.625402 -1.384500 -8.703825 43.384331 -2.762845 1.881438 -24.242857 0.000000 0.000000 0.000000 -4.052380 -1.703947 14.400798 -0.875533 -0.397679 0.085331 -4.011007 -0.332924 0.796246 0.302471 -0.407247 2.818300 0.028099 0.025956 -0.050848 1.034290 -0.147324 3.581661 1.124120 0.102897 -2.487389 0.000000 0.000000 0.000000 0.992117 0.027533 2.002628 -20.825247 12.918514 -3.263491 -52.567959 -11.887736 -2.877601 -169.163330 -73.731552 170.225677 0.000000 0.000000 0.000000 0.065403 -1.626163 6.067506 16.224192 -7.715027 -3.276909 54.802677 33.578735 -18.288017 -0.101090 65.121643 0.128637 0.000000 0.000000 0.000000 
6.554001 84.874756 -7.919060 0.108807 -0.021657 0.125738 -4.889773 -2.838843 17.606688 -1.039137 14.756092 -58.764130 -6.130924 -4.831202 62.910423 3.697853 -2.313110 -22.599155 0.000000 0.000000 0.000000 -4.442744 -6.042301 19.032648 2.747827 -5.475146 -21.182684 -1.074701 -7.993924 43.602448 -2.178156 2.655713 -28.148634 0.000000 0.000000 0.000000 -4.506621 -3.056704 13.792500 -0.689040 -0.559189 -0.231887 -3.264818 -0.321380 1.350334 -0.422404 -0.315160 2.161847 -0.005470 0.004029 -0.030061 0.492215 0.084722 3.271991 1.394317 -0.128689 -2.044022 0.000000 0.000000 0.000000 0.427821 0.155885 1.853287 -20.257481 13.100988 -3.311484 -53.399654 -9.279465 -4.313635 -169.861618 -70.563141 171.832657 0.000000 0.000000 0.000000 0.126130 -1.291088 6.079486 14.061383 -7.401975 -3.218598 52.077061 37.411274 -17.628960 -0.202858 65.137039 0.013711 0.000000 0.000000 0.000000 
6.547580 85.674080 -8.691617 -0.134069 -0.009725 -0.114859 -4.759436 -3.262436 14.786671 -0.643010 13.850977 -53.803730 -3.973011 -5.940826 59.636517 2.629423 -2.464979 -22.799578 0.000000 0.000000 0.000000 -4.172180 -7.697528 18.403652 1.169016 -5.619415 -21.922829 0.641882 -7.293737 43.409512 -1.248351 3.346703 -24.739204 0.000000 0.000000 0.000000 -4.865864 -4.627825 13.399414 -0.274577 -0.652459 -0.234260 -2.808921 -0.603430 3.017193 -0.449435 -0.177327 1.663901 0.025742 0.012880 -0.001517 0.391592 0.178604 2.825979 1.492390 -0.406144 -1.386654 0.000000 0.000000 0.000000 -0.203449 0.218470 1.607021 -15.934736 12.558770 -3.106178 -51.291573 -12.607772 -10.377082 -171.993149 -67.409363 174.263367 0.000000 0.000000 0.000000 0.241108 -0.967991 4.965605 9.603749 -6.166061 -3.035546 44.451099 46.893127 -21.858011 -0.102768 65.147728 0.130251 0.000000 0.000000 0.000000 
